<svg width="266" height="54" viewBox="0 0 266 54" fill="none" xmlns="http://www.w3.org/2000/svg">
<g clip-path="url(#clip0_2_434)">
<path d="M16.4642 22.2971L26.7859 11.9928L37.113 22.3026L43.1189 16.3066L26.7859 0L10.4583 16.3011L16.4642 22.2971Z" fill="white" fill-opacity="0.5"/>
<path d="M12.2227 26.5301L6.21698 20.5342L0.210918 26.5304L6.21669 32.5263L12.2227 26.5301Z" fill="white" fill-opacity="0.5"/>
<path d="M16.4641 30.7648L26.7858 41.0691L37.1125 30.7598L43.1218 36.7524L43.1188 36.7558L26.7858 53.0619L10.4579 36.7612L10.4495 36.7528L16.4641 30.7648Z" fill="white" fill-opacity="0.5"/>
<path d="M47.3552 32.5291L53.3613 26.533L47.3555 20.5371L41.3494 26.5333L47.3552 32.5291Z" fill="white" fill-opacity="0.5"/>
<path d="M32.8777 26.5278H32.8802L26.7858 20.4434L22.2819 24.9398H22.2815L21.7643 25.4566L20.6968 26.5223L20.6884 26.5307L20.6968 26.5395L26.7858 32.6185L32.8802 26.5341L32.8832 26.5307L32.8777 26.5278Z" fill="white" fill-opacity="0.5"/>
<path d="M62.7239 12.8574H75.7864C79.0284 12.8574 81.48 13.6881 83.1415 15.3494C84.4273 16.636 85.07 18.2306 85.07 20.1329V20.2134C85.07 21.0172 84.9705 21.7276 84.7702 22.3436C84.5704 22.9605 84.3034 23.5158 83.9697 24.0116C83.6368 24.5078 83.2498 24.9433 82.8098 25.318C82.3695 25.6935 81.8964 26.0153 81.3897 26.2827C83.0193 26.8996 84.3022 27.7366 85.2375 28.7952C86.1723 29.8542 86.6404 31.3215 86.6404 33.1969V33.277C86.6404 34.5636 86.3927 35.6889 85.8969 36.6541C85.4012 37.6184 84.6909 38.4226 83.7661 39.0659C82.8413 39.7093 81.7293 40.1912 80.4297 40.5131C79.13 40.8345 77.6897 40.995 76.1092 40.995H62.7239V12.8574ZM74.4805 24.2329C75.8498 24.2329 76.937 23.9991 77.7418 23.5297C78.5469 23.0607 78.9495 22.3034 78.9495 21.2586V21.1781C78.9495 20.2406 78.6002 19.524 77.9025 19.0278C77.2044 18.532 76.1978 18.2839 74.883 18.2839H68.763V24.2329H74.4805ZM76.1315 35.569C77.5004 35.569 78.5734 35.3218 79.3525 34.8255C80.1308 34.3298 80.5203 33.559 80.5203 32.5138V32.4338C80.5203 31.4958 80.1576 30.7524 79.4331 30.2025C78.7081 29.6539 77.5407 29.379 75.93 29.379H68.763V35.5694H76.1315V35.569Z" fill="white" fill-opacity="0.5"/>
<path d="M94.4199 12.8574H100.621V40.9959H94.4199V12.8574Z" fill="white" fill-opacity="0.5"/>
<path d="M110.013 12.8574H115.729L128.936 30.1828V12.8574H135.056V40.9959H129.782L116.132 23.1081V40.9959H110.013V12.8574Z" fill="white" fill-opacity="0.5"/>
<path d="M153.829 12.6567H159.546L171.626 40.9959H165.143L162.566 34.6852H150.648L148.071 40.9959H141.749L153.829 12.6567ZM160.352 29.2177L156.607 20.0932L152.863 29.2177H160.352Z" fill="white" fill-opacity="0.5"/>
<path d="M178.32 12.8574H184.037L197.243 30.1828V12.8574H203.363V40.9959H198.089L184.44 23.1081V40.9959H178.32V12.8574Z" fill="white" fill-opacity="0.5"/>
<path d="M225.679 41.478C223.611 41.478 221.693 41.1025 219.921 40.3528C218.149 39.603 216.619 38.5775 215.331 37.2775C214.042 35.9778 213.035 34.4435 212.311 32.6749C211.587 30.9059 211.224 29.0167 211.224 27.0067V26.9266C211.224 24.9167 211.587 23.0345 212.311 21.2789C213.036 19.5237 214.042 17.9827 215.331 16.6563C216.619 15.3299 218.163 14.2842 219.961 13.5206C221.759 12.757 223.746 12.3752 225.921 12.3752C227.235 12.3752 228.436 12.483 229.523 12.6967C230.61 12.9117 231.596 13.2059 232.483 13.581C233.369 13.9565 234.187 14.412 234.94 14.9476C235.69 15.4841 236.388 16.0733 237.033 16.7167L233.088 21.2588C231.986 20.2676 230.866 19.4898 229.725 18.9274C228.584 18.365 227.302 18.0833 225.88 18.0833C224.699 18.0833 223.605 18.3113 222.599 18.7669C221.592 19.2224 220.726 19.8519 220.001 20.6557C219.277 21.4595 218.713 22.3912 218.31 23.4494C217.908 24.5085 217.707 25.6404 217.707 26.8462V26.9262C217.707 28.132 217.908 29.2715 218.31 30.3427C218.713 31.4152 219.269 32.3527 219.981 33.1565C220.692 33.9603 221.551 34.5973 222.558 35.0663C223.565 35.5357 224.672 35.7695 225.88 35.7695C227.491 35.7695 228.852 35.4749 229.966 34.8853C231.08 34.2964 232.188 33.4922 233.288 32.4734L237.234 36.4531C236.509 37.2305 235.757 37.9275 234.979 38.5431C234.201 39.16 233.349 39.6889 232.422 40.1315C231.497 40.5732 230.482 40.9089 229.383 41.1361C228.281 41.3636 227.047 41.478 225.679 41.478Z" fill="white" fill-opacity="0.5"/>
<path d="M244.532 12.8574H265.751V18.3647H250.652V24.0728H263.939V29.5797H250.652V35.489H265.953V40.9959H244.532V12.8574Z" fill="white" fill-opacity="0.5"/>
</g>
<defs>
<clipPath id="clip0_2_434">
<rect width="265.31" height="53.062" fill="white" transform="translate(0.44043)"/>
</clipPath>
</defs>
</svg>
