<svg width="197" height="32" viewBox="0 0 197 32" fill="none" xmlns="http://www.w3.org/2000/svg">
<g clip-path="url(#clip0_2_437)">
<path d="M17.33 0.696777H35.7174C35.7063 0.93545 35.6222 1.16531 35.4762 1.35651C34.8538 2.40413 34.2935 3.49452 33.682 4.54214C32.8168 6.04638 32.0076 7.57812 31.1283 9.07625C30.5712 10.1544 29.9425 11.199 29.3481 12.2588C25.7752 12.2588 22.2023 12.2588 18.6293 12.2588C18.4426 12.2588 18.2574 12.268 18.0707 12.2787C17.9151 12.6819 17.6567 13.0346 17.4482 13.4134C17.1759 13.8471 16.9549 14.3098 16.6857 14.7435C16.4009 15.3269 16.0072 15.8492 15.7209 16.431C15.1296 17.416 14.5771 18.4163 13.9982 19.412C13.3945 20.4301 12.8042 21.4625 12.2273 22.5091C11.9832 22.88 11.7583 23.2628 11.5535 23.656C10.3444 25.7207 9.17418 27.8037 7.96349 29.8669C7.8608 30.0887 7.72554 30.2945 7.56201 30.4777C5.49233 30.464 3.42265 30.4777 1.35297 30.4777C1.09806 30.4825 0.844654 30.5174 0.598236 30.5816C0.598236 30.0196 0.981049 29.5691 1.23937 29.0972C1.5506 28.4634 1.96609 27.8755 2.27888 27.2402C4.75938 22.8847 7.21343 18.514 9.68615 14.1556C10.2464 13.2087 10.7272 12.242 11.2905 11.3135C11.9939 10.0918 12.6491 8.8426 13.382 7.63462C13.6154 7.12913 13.9298 6.66641 14.1865 6.17314C15.0984 4.58032 15.9932 2.97834 16.902 1.38552C17.0098 1.13677 17.154 0.904752 17.33 0.696777Z" fill="white" fill-opacity="0.5"/>
<path d="M38.6367 7.10938C39.8614 5.00955 41.0441 2.88681 42.2859 0.796143H48.9275C49.0243 0.800945 49.1203 0.81579 49.2139 0.84043C48.9929 1.16877 48.8077 1.51696 48.6132 1.85904C47.0114 4.6802 45.4143 7.50288 43.8218 10.3271C43.1527 11.477 42.5302 12.6529 41.8517 13.7968L41.7848 13.8197L41.7724 13.9632C38.6497 19.461 35.5374 24.9628 32.4355 30.4687C26.3385 30.4748 20.2409 30.4748 14.1429 30.4687C14.4899 29.757 14.9008 29.0774 15.2867 28.3856C17.0233 25.2519 18.8051 22.1457 20.5169 19.012C24.2631 19.0059 28.0092 19.0059 31.7554 19.012C34.0694 15.0567 36.3336 11.0708 38.6305 7.10938H38.6367Z" fill="white" fill-opacity="0.5"/>
<path d="M107.18 0.715332V30.8307H112.498V9.65374L122.197 23.6012L131.819 9.32235V30.8307H137.292V0.715332H131.405L122.236 14.617L112.965 0.715332H107.18Z" fill="white" fill-opacity="0.5"/>
<path d="M82.3085 8.48267H85.7834V31.0845H82.3085V8.48267Z" fill="white" fill-opacity="0.5"/>
<path d="M82.0097 0.109131H86.0822V3.90105H82.0097V0.109131Z" fill="white" fill-opacity="0.5"/>
<path d="M92.4234 2.00586H96.0539V8.48251H103.212V11.6391H96.0539V25.0658C96.0477 25.5832 96.17 26.0943 96.4103 26.5548C97.025 27.7002 98.6947 29.0593 103.212 27.4711V30.3971C103.212 30.3971 99.0884 32.6878 95.3537 30.6018C95.3537 30.6018 93.4987 29.829 92.7191 27.2206C92.5166 26.5219 92.417 25.7984 92.4234 25.0719V11.5887L89.3625 11.6391V8.48251H92.4483L92.4234 2.00586Z" fill="white" fill-opacity="0.5"/>
<path d="M142.894 0.715332V31.0339H165.976V26.147H148.523V18.1035H163.902V13.2929H148.496V5.63276H165.796V0.715332H142.894Z" fill="white" fill-opacity="0.5"/>
<path d="M168.142 0.715332H174.717L182.265 11.3596L189.753 0.715332H196.327L185.59 15.5012L196.997 31.0079H190.072L182.291 19.6825L174.134 31.0339H167.559L178.802 15.6356L168.142 0.715332Z" fill="white" fill-opacity="0.5"/>
<path d="M71.6738 15.304C71.6738 15.304 76.7577 13.421 76.4465 7.99962C76.4465 7.99962 76.4045 2.78593 70.4226 1.17631C69.4281 0.914785 68.4022 0.785351 67.3726 0.791467H53.0264L53.0653 30.9069H68.5101C68.5101 30.9069 77.5482 30.716 78.1847 22.813C78.1847 22.813 78.8321 17.2893 71.6738 15.304ZM56.7347 3.90075H65.8911C73.0743 3.87631 72.8673 8.83955 72.8673 8.83955C72.9747 14.5022 66.3829 14.3877 66.3829 14.3877H56.7347V3.90075ZM67.939 27.7243H56.7347V17.2389H67.4473C74.6305 17.2129 74.4235 22.1762 74.4235 22.1762C74.5309 27.8388 67.939 27.7243 67.939 27.7243Z" fill="white" fill-opacity="0.5"/>
</g>
<defs>
<clipPath id="clip0_2_437">
<rect width="196.398" height="31.3692" fill="white" transform="translate(0.598267 0.109131)"/>
</clipPath>
</defs>
</svg>
