<svg width="350" height="54" viewBox="0 0 350 54" fill="none" xmlns="http://www.w3.org/2000/svg">
<path d="M94.3758 36.3617V27.824C94.3758 23.406 90.8072 19.8325 86.3454 19.8325H85.9981C84.2633 19.8325 82.5281 20.428 81.6856 21.4704V11.3442C81.6856 10.1025 80.7436 9.45801 79.8016 9.45801C78.8596 9.45801 77.918 10.1029 77.918 11.3442V42.5663C77.918 43.7577 78.86 44.3532 79.8016 44.3532C80.6445 44.3532 81.4871 43.8565 81.6359 42.8651C82.3296 43.5593 83.7673 44.3532 85.8987 44.3532H86.345C90.757 44.3532 94.3758 40.7797 94.3758 36.3617ZM90.6087 36.3617C90.6087 38.6948 88.7251 40.5813 86.3454 40.5813H85.8991C83.6686 40.5813 81.686 39.0919 81.686 36.6596V27.4269C81.686 25.1431 83.669 23.6048 85.8991 23.6048H86.3454C88.7251 23.6048 90.6087 25.4913 90.6087 27.824V36.3617ZM110.189 42.4667C110.189 41.5238 109.594 40.5813 108.306 40.5813C106.769 40.5311 105.579 39.3401 105.579 37.8009V11.3442C105.579 10.1025 104.638 9.45801 103.695 9.45801C102.754 9.45801 101.812 10.1029 101.812 11.3442V37.8009C101.812 41.4242 104.687 44.3532 108.306 44.3532C109.594 44.3532 110.189 43.41 110.189 42.4667ZM131.801 36.3617V27.824C131.801 23.406 128.233 19.8325 123.821 19.8325H123.325C118.913 19.8325 115.344 23.406 115.344 27.824V36.3617C115.344 40.7797 118.913 44.3532 123.325 44.3532H123.821C128.232 44.3532 131.801 40.7797 131.801 36.3617ZM128.034 36.3617C128.034 38.6948 126.151 40.5813 123.821 40.5813H123.374C120.995 40.5813 119.111 38.6948 119.111 36.3617V27.824C119.111 25.4913 120.995 23.6048 123.325 23.6048H123.821C126.151 23.6048 128.034 25.4913 128.034 27.824V36.3617ZM154.653 36.3617C154.653 35.0715 153.711 34.4261 152.769 34.4261C151.878 34.4261 150.935 35.0715 150.886 36.3617C150.787 38.6948 149.002 40.5813 146.672 40.5813H146.226C143.847 40.5813 141.963 38.6948 141.963 36.3617V27.824C141.963 25.4913 143.847 23.6048 146.177 23.6048H146.672C149.002 23.6048 150.786 25.3419 150.885 27.8734C150.935 29.115 151.877 29.7106 152.769 29.7106C153.711 29.7106 154.653 29.0648 154.653 27.824C154.653 23.406 151.034 19.8325 146.671 19.8325H146.176C141.814 19.8325 138.195 23.3566 138.195 27.824V36.3617C138.195 40.7797 141.764 44.3532 146.176 44.3532H146.671C151.084 44.3532 154.653 40.7797 154.653 36.3617ZM178.397 42.4667C178.397 42.1691 178.348 41.8222 178.149 41.5238L171.358 29.6106L177.505 23.0586C177.902 22.6615 178.05 22.2149 178.05 21.768C178.05 20.7745 177.207 19.832 176.117 19.832C175.671 19.832 175.175 20.03 174.778 20.4774L165.36 30.504V11.3442C165.36 10.1025 164.418 9.45801 163.476 9.45801C162.534 9.45801 161.592 10.1029 161.592 11.3442V42.4667C161.592 43.7079 162.534 44.3532 163.476 44.3532C164.418 44.3532 165.36 43.7079 165.36 42.4667V36.0629L168.681 32.4894L174.877 43.3598C175.274 44.0557 175.868 44.3532 176.464 44.3532C177.604 44.3532 178.397 43.4593 178.397 42.4667ZM199.81 36.3617C199.81 35.0715 198.868 34.4261 197.927 34.4261C197.035 34.4261 196.092 35.0715 196.043 36.3617C195.944 38.6948 194.159 40.5813 191.83 40.5813H191.383C189.004 40.5813 187.12 38.6948 187.12 36.3617V27.824C187.12 25.4913 189.004 23.6048 191.334 23.6048H191.83C194.159 23.6048 195.944 25.3419 196.043 27.8734C196.092 29.115 197.035 29.7106 197.927 29.7106C198.869 29.7106 199.81 29.0648 199.81 27.824C199.81 23.406 196.192 19.8325 191.83 19.8325H191.334C186.972 19.8325 183.353 23.3566 183.353 27.824V36.3617C183.353 40.7797 186.923 44.3532 191.334 44.3532H191.83C196.242 44.3532 199.81 40.7797 199.81 36.3617ZM223.208 42.4667V27.824C223.208 23.406 219.639 19.8325 215.226 19.8325H214.83C213.095 19.8325 211.36 20.428 210.516 21.3215V11.3442C210.516 10.1025 209.575 9.45801 208.635 9.45801C207.692 9.45801 206.751 10.1029 206.751 11.3442V42.4667C206.751 43.7079 207.693 44.3532 208.635 44.3532C209.576 44.3532 210.516 43.7079 210.516 42.4667V27.5758C210.516 24.9942 212.749 23.6048 215.029 23.6048C217.209 23.6048 219.44 24.9452 219.44 27.824V42.4667C219.44 43.7079 220.382 44.3532 221.324 44.3532C222.266 44.3532 223.208 43.7079 223.208 42.4667ZM247.993 42.4185C247.993 41.6234 247.497 40.8291 246.406 40.6307C245.515 40.4822 245.118 39.8854 245.118 38.9923V27.4758C245.118 23.2072 241.747 19.832 237.335 19.832H236.988C234.361 19.832 231.188 20.8745 229.602 24.4484C229.453 24.746 229.403 25.0436 229.403 25.3419C229.403 26.3844 230.346 27.0791 231.287 27.0791C231.932 27.0791 232.576 26.7815 232.973 26.086C233.915 24.448 234.956 23.6043 236.988 23.6043H237.335C239.517 23.6043 241.35 24.6966 241.35 27.6244C241.35 27.873 241.35 28.2701 241.202 28.4685C240.013 30.1567 229.008 28.7661 228.661 36.609V37.2046C228.661 41.8218 232.626 44.3528 236.642 44.3528H237.088C239.12 44.3528 241.004 43.6083 242.442 42.3683C243.086 43.3112 244.127 44.0557 245.812 44.3034C245.912 44.3528 246.06 44.3528 246.16 44.3528C247.348 44.3532 247.993 43.41 247.993 42.4185ZM241.35 36.3617C241.35 38.6948 239.417 40.5813 237.088 40.5813H236.641C234.113 40.5813 232.428 39.2409 232.428 37.1062V36.7086C232.576 33.2339 237.682 33.4331 241.35 32.4404V36.3617ZM257.708 42.4667V21.7186C257.708 20.4774 256.766 19.8325 255.825 19.8325C254.884 19.8325 253.941 20.4778 253.941 21.7186V42.4667C253.941 43.7079 254.884 44.3532 255.825 44.3532C256.766 44.3532 257.708 43.7079 257.708 42.4667ZM282.096 42.4667V27.824C282.096 22.3635 278.378 19.8325 274.165 19.8325H273.719C271.983 19.8325 270.348 20.428 269.456 21.3215C269.259 20.328 268.414 19.8325 267.572 19.8325C266.58 19.8325 265.639 20.5272 265.639 21.7186V42.4667C265.639 43.7079 266.581 44.3532 267.523 44.3532C268.465 44.3532 269.406 43.7079 269.406 42.4667V27.824C269.406 25.4913 271.34 23.6048 273.669 23.6048H274.116C276.495 23.6048 278.378 25.4913 278.378 27.824V42.4667C278.378 43.7079 279.321 44.3532 280.262 44.3532C281.204 44.3532 282.096 43.7079 282.096 42.4667ZM301.549 42.4667V21.7186C301.549 20.4774 300.607 19.8325 299.665 19.8325C298.724 19.8325 297.782 20.4778 297.782 21.7186V42.4667C297.782 43.7079 298.724 44.3532 299.665 44.3532C300.607 44.3532 301.549 43.7079 301.549 42.4667ZM325.391 36.3617V27.824C325.391 23.406 321.822 19.8325 317.411 19.8325H316.915C312.503 19.8325 308.935 23.406 308.935 27.824V36.3617C308.935 40.7797 312.503 44.3532 316.915 44.3532H317.411C321.823 44.3532 325.391 40.7797 325.391 36.3617ZM321.625 36.3617C321.625 38.6948 319.741 40.5813 317.411 40.5813H316.965C314.584 40.5813 312.702 38.6948 312.702 36.3617V27.824C312.702 25.4913 314.584 23.6048 316.915 23.6048H317.411C319.741 23.6048 321.625 25.4913 321.625 27.824V36.3617Z" fill="white" fill-opacity="0.5"/>
<path d="M40.5906 25.6941C39.4428 25.6941 38.5093 26.6292 38.5093 27.7782C38.5093 28.9272 39.4432 29.8619 40.5906 29.8619C41.738 29.8619 42.6723 28.9272 42.6723 27.7782C42.6723 26.6292 41.7385 25.6941 40.5906 25.6941Z" fill="white" fill-opacity="0.5"/>
<path d="M50.2141 19.9119C49.0662 19.9119 48.1336 20.847 48.1336 21.996C48.1336 23.1454 49.0666 24.0797 50.2141 24.0797C51.3615 24.0797 52.2961 23.145 52.2961 21.996C52.2965 20.847 51.3619 19.9119 50.2141 19.9119Z" fill="white" fill-opacity="0.5"/>
<path d="M59.8379 14.1299C58.6904 14.1299 57.7566 15.0646 57.7566 16.2136C57.7566 17.363 58.6904 18.2989 59.8379 18.2989C60.9861 18.2989 61.9191 17.3634 61.9191 16.2136C61.9191 15.0646 60.9861 14.1299 59.8379 14.1299Z" fill="white" fill-opacity="0.5"/>
<path d="M30.9666 8.34741C29.8192 8.34741 28.8853 9.28253 28.8853 10.4319C28.8853 11.5809 29.8192 12.5156 30.9666 12.5156C32.1144 12.5156 33.0483 11.5809 33.0483 10.4319C33.0483 9.28253 32.1148 8.34741 30.9666 8.34741Z" fill="white" fill-opacity="0.5"/>
<path d="M40.5908 2.56543C39.443 2.56543 38.5096 3.50095 38.5096 4.64995C38.5096 5.79936 39.4434 6.73447 40.5908 6.73447C41.7383 6.73447 42.6725 5.79936 42.6725 4.64995C42.6725 3.50095 41.7387 2.56543 40.5908 2.56543Z" fill="white" fill-opacity="0.5"/>
<path d="M40.5906 14.1299C39.4428 14.1299 38.5093 15.0646 38.5093 16.2136C38.5093 17.363 39.4432 18.2989 40.5906 18.2989C41.738 18.2989 42.6723 17.3634 42.6723 16.2136C42.6723 15.0646 41.7385 14.1299 40.5906 14.1299Z" fill="white" fill-opacity="0.5"/>
<path d="M50.2141 8.34741C49.0662 8.34741 48.1336 9.28253 48.1336 10.4319C48.1336 11.5809 49.0666 12.5156 50.2141 12.5156C51.3615 12.5156 52.2961 11.5809 52.2961 10.4319C52.2965 9.28253 51.3619 8.34741 50.2141 8.34741Z" fill="white" fill-opacity="0.5"/>
<path d="M50.2141 31.4766C49.0662 31.4766 48.1336 32.4113 48.1336 33.5599C48.1336 34.7093 49.0666 35.644 50.2141 35.644C51.3615 35.644 52.2961 34.7093 52.2961 33.5599C52.2965 32.4113 51.3619 31.4766 50.2141 31.4766Z" fill="white" fill-opacity="0.5"/>
<path d="M59.8379 25.6941C58.6904 25.6941 57.7566 26.6292 57.7566 27.7782C57.7566 28.9272 58.6904 29.8619 59.8379 29.8619C60.9861 29.8619 61.9191 28.9272 61.9191 27.7782C61.9191 26.6292 60.9861 25.6941 59.8379 25.6941Z" fill="white" fill-opacity="0.5"/>
<path d="M50.2141 43.0403C49.0662 43.0403 48.1336 43.975 48.1336 45.1244C48.1336 46.2734 49.0666 47.2081 50.2141 47.2081C51.3615 47.2081 52.2961 46.2734 52.2961 45.1244C52.2965 43.975 51.3619 43.0403 50.2141 43.0403Z" fill="white" fill-opacity="0.5"/>
<path d="M59.8379 37.2581C58.6904 37.2581 57.7566 38.1928 57.7566 39.3422C57.7566 40.4912 58.6904 41.4259 59.8379 41.4259C60.9861 41.4259 61.9191 40.4912 61.9191 39.3422C61.9191 38.1928 60.9861 37.2581 59.8379 37.2581Z" fill="white" fill-opacity="0.5"/>
<path d="M40.5906 48.8225C39.4428 48.8225 38.5093 49.7576 38.5093 50.9066C38.5093 52.0552 39.4432 52.9903 40.5906 52.9903C41.738 52.9903 42.6723 52.0552 42.6723 50.9066C42.6723 49.7576 41.7385 48.8225 40.5906 48.8225Z" fill="white" fill-opacity="0.5"/>
<path d="M40.5906 37.2581C39.4428 37.2581 38.5093 38.1928 38.5093 39.3422C38.5093 40.4912 39.4432 41.4259 40.5906 41.4259C41.738 41.4259 42.6723 40.4912 42.6723 39.3422C42.6723 38.1928 41.7385 37.2581 40.5906 37.2581Z" fill="white" fill-opacity="0.5"/>
<path d="M30.9666 19.9119C29.8192 19.9119 28.8853 20.847 28.8853 21.996C28.8853 23.1454 29.8192 24.0797 30.9666 24.0797C32.1144 24.0797 33.0483 23.145 33.0483 21.996C33.0483 20.847 32.1148 19.9119 30.9666 19.9119Z" fill="white" fill-opacity="0.5"/>
<path d="M30.9666 43.0403C29.8192 43.0403 28.8853 43.975 28.8853 45.1244C28.8853 46.2734 29.8192 47.2081 30.9666 47.2081C32.1144 47.2081 33.0483 46.2734 33.0483 45.1244C33.0483 43.975 32.1148 43.0403 30.9666 43.0403Z" fill="white" fill-opacity="0.5"/>
<path d="M30.9666 31.4766C29.8192 31.4766 28.8853 32.4113 28.8853 33.5599C28.8853 34.7093 29.8192 35.644 30.9666 35.644C32.1144 35.644 33.0483 34.7093 33.0483 33.5599C33.0483 32.4113 32.1148 31.4766 30.9666 31.4766Z" fill="white" fill-opacity="0.5"/>
<path d="M21.3432 14.1299C20.1954 14.1299 19.2623 15.0646 19.2623 16.2136C19.2623 17.363 20.1958 18.2989 21.3432 18.2989C22.4906 18.2989 23.4249 17.3634 23.4249 16.2136C23.4249 15.0646 22.4906 14.1299 21.3432 14.1299Z" fill="white" fill-opacity="0.5"/>
<path d="M21.3432 37.2581C20.1954 37.2581 19.2623 38.1928 19.2623 39.3422C19.2623 40.4912 20.1958 41.4259 21.3432 41.4259C22.4906 41.4259 23.4249 40.4912 23.4249 39.3422C23.4249 38.1928 22.4906 37.2581 21.3432 37.2581Z" fill="white" fill-opacity="0.5"/>
<path d="M21.3432 25.6941C20.1954 25.6941 19.2623 26.6292 19.2623 27.7782C19.2623 28.9272 20.1958 29.8619 21.3432 29.8619C22.4906 29.8619 23.4249 28.9272 23.4249 27.7782C23.4249 26.6292 22.4906 25.6941 21.3432 25.6941Z" fill="white" fill-opacity="0.5"/>
<path d="M255.794 9.35425C254.75 9.35425 253.899 10.2045 253.899 11.2502C253.899 12.2959 254.75 13.1466 255.794 13.1466C256.838 13.1466 257.688 12.2959 257.688 11.2502C257.688 10.2045 256.838 9.35425 255.794 9.35425Z" fill="white" fill-opacity="0.5"/>
<path d="M299.649 9.35425C298.605 9.35425 297.755 10.2045 297.755 11.2502C297.755 12.2959 298.605 13.1466 299.649 13.1466C300.694 13.1466 301.543 12.2959 301.543 11.2502C301.543 10.2045 300.694 9.35425 299.649 9.35425Z" fill="white" fill-opacity="0.5"/>
<path d="M289.714 40.7168C288.676 40.7168 287.83 41.5625 287.83 42.6025C287.83 43.6426 288.676 44.4891 289.714 44.4891C290.753 44.4891 291.598 43.6426 291.598 42.6025C291.598 41.5625 290.753 40.7168 289.714 40.7168Z" fill="white" fill-opacity="0.5"/>
</svg>
