<svg width="61" height="13" viewBox="0 0 61 13" fill="none" xmlns="http://www.w3.org/2000/svg">
<path opacity="0.7" d="M2.95136 2.09888V2.41568C2.95136 2.51168 2.89856 2.55968 2.79296 2.55968H2.74975C2.28895 2.55968 1.93375 2.69888 1.68415 2.97728C1.43455 3.24608 1.30975 3.63488 1.30975 4.14369V10.5229C1.30975 11.0317 1.43455 11.4205 1.68415 11.6893C1.93375 11.9677 2.28895 12.1069 2.74975 12.1069H2.79296C2.89856 12.1069 2.95136 12.1549 2.95136 12.2509V12.5677C2.95136 12.6541 2.89856 12.6973 2.79296 12.6973H2.74975C2.10655 12.6973 1.59295 12.5005 1.20895 12.1069C0.834547 11.7229 0.647346 11.1805 0.647346 10.4797V4.18689C0.647346 3.48608 0.834547 2.94368 1.20895 2.55968C1.59295 2.16608 2.10655 1.96928 2.74975 1.96928H2.80736C2.90336 1.96928 2.95136 2.01248 2.95136 2.09888ZM7.8791 12.6397H7.5479C7.4423 12.6397 7.3895 12.5821 7.3895 12.4669V11.2285H6.9287C6.31429 11.2285 5.82469 11.0461 5.45989 10.6813C5.09509 10.3069 4.91269 9.80771 4.91269 9.18371V8.73731C4.91269 8.6317 4.96549 8.5789 5.07109 8.5789H5.48869C5.58469 8.5789 5.63269 8.6317 5.63269 8.73731V9.14051C5.63269 10.1005 6.09829 10.5805 7.0295 10.5805H8.0663C8.99751 10.5805 9.46311 10.0957 9.46311 9.12611V8.2765C9.46311 7.7677 9.33351 7.4125 9.07431 7.2109C8.82471 7.0093 8.4455 6.9037 7.9367 6.8941L7.0295 6.8797C6.35749 6.8605 5.83429 6.7069 5.45989 6.4189C5.09509 6.13089 4.91269 5.62209 4.91269 4.89249V3.98528C4.91269 3.36128 5.09509 2.86688 5.45989 2.50208C5.82469 2.12768 6.31429 1.94048 6.9287 1.94048H7.3895V0.702071C7.3895 0.58687 7.4423 0.52927 7.5479 0.52927H7.8791C7.9847 0.52927 8.0375 0.58687 8.0375 0.702071V1.94048H8.1671C8.77191 1.94048 9.25191 2.12768 9.60711 2.50208C9.97191 2.86688 10.1543 3.36128 10.1543 3.98528V4.38849C10.1543 4.50369 10.1063 4.56129 10.0103 4.56129H9.59271C9.48711 4.56129 9.43431 4.50369 9.43431 4.38849V4.04289C9.43431 3.08288 8.96871 2.60288 8.0375 2.60288H7.0295C6.09829 2.60288 5.63269 3.09248 5.63269 4.07169V4.90689C5.63269 5.38689 5.75269 5.72769 5.99269 5.92929C6.24229 6.12129 6.6215 6.22209 7.1303 6.23169H8.1671C8.79111 6.25089 9.28071 6.4093 9.63591 6.7069C10.0007 7.0045 10.1831 7.5133 10.1831 8.2333V9.18371C10.1831 9.81731 10.0007 10.3165 9.63591 10.6813C9.27111 11.0461 8.78151 11.2285 8.1671 11.2285H8.0375V12.4669C8.0375 12.5821 7.9847 12.6397 7.8791 12.6397ZM12.0394 11.0701V9.80291C12.0394 9.13091 12.3274 8.5789 12.9034 8.1469L15.7402 5.98689C16.2298 5.61249 16.4746 5.13249 16.4746 4.54689V3.98528C16.4746 3.06368 16.0186 2.60288 15.1066 2.60288H14.0698C13.1674 2.60288 12.7162 3.06368 12.7162 3.98528V4.63329C12.7162 4.74849 12.6634 4.80609 12.5578 4.80609H12.1402C12.0346 4.80609 11.9818 4.74849 11.9818 4.63329V3.97088C11.9818 3.34688 12.1642 2.85728 12.529 2.50208C12.8938 2.14688 13.3882 1.96928 14.0122 1.96928H15.1786C15.8026 1.96928 16.2922 2.14688 16.6474 2.50208C17.0122 2.84768 17.1946 3.33728 17.1946 3.97088V4.57569C17.1946 5.32449 16.8922 5.92929 16.2874 6.39009L13.4218 8.5933C13.0186 8.90051 12.817 9.27971 12.817 9.73091V10.5661H17.0794C17.185 10.5661 17.2378 10.6189 17.2378 10.7245V11.0701C17.2378 11.1757 17.185 11.2285 17.0794 11.2285H12.2122C12.097 11.2285 12.0394 11.1757 12.0394 11.0701ZM20.9464 6.8653H23.5384V4.04289C23.5384 3.58208 23.4184 3.23168 23.1784 2.99168C22.948 2.74208 22.612 2.61728 22.1704 2.61728H20.9464C20.5048 2.61728 20.1688 2.74208 19.9384 2.99168C19.708 3.23168 19.5928 3.58208 19.5928 4.04289V5.43969C19.5928 5.90049 19.708 6.25569 19.9384 6.5053C20.1688 6.7453 20.5048 6.8653 20.9464 6.8653ZM22.228 11.2285H19.4776C19.3624 11.2285 19.3048 11.1757 19.3048 11.0701V10.7245C19.3048 10.6285 19.3624 10.5805 19.4776 10.5805H22.1704C22.612 10.5805 22.948 10.4605 23.1784 10.2205C23.4088 9.97091 23.524 9.61571 23.524 9.15491V7.5133H20.8888C20.2648 7.5133 19.7704 7.3309 19.4056 6.9661C19.0408 6.6013 18.8584 6.10209 18.8584 5.46849V4.01408C18.8584 3.38048 19.0408 2.88128 19.4056 2.51648C19.7704 2.15168 20.2648 1.96928 20.8888 1.96928H22.228C22.852 1.96928 23.3464 2.15168 23.7112 2.51648C24.076 2.88128 24.2584 3.38048 24.2584 4.01408V9.18371C24.2584 9.81731 24.076 10.3165 23.7112 10.6813C23.3464 11.0461 22.852 11.2285 22.228 11.2285ZM26.981 9.34211V10.4653C26.981 10.6477 26.9282 10.9213 26.8226 11.2861L26.405 12.5965C26.3954 12.6637 26.3522 12.6973 26.2754 12.6973C26.2082 12.6973 26.1746 12.6541 26.1746 12.5677V9.34211C26.1746 9.23651 26.2274 9.18371 26.333 9.18371H26.837C26.933 9.18371 26.981 9.23651 26.981 9.34211ZM31.0045 10.5805H32.4013C33.3133 10.5805 33.7693 10.1197 33.7693 9.19811V8.2621C33.7693 7.3405 33.3133 6.8797 32.4013 6.8797H31.0045C30.1021 6.8797 29.6509 7.3405 29.6509 8.2621V9.19811C29.6509 10.1197 30.1021 10.5805 31.0045 10.5805ZM31.0045 6.26049H32.4013C32.8429 6.26049 33.1789 6.14049 33.4093 5.90049C33.6493 5.66049 33.7693 5.31489 33.7693 4.86369V3.99968C33.7693 3.07808 33.3133 2.61728 32.4013 2.61728H31.0045C30.1021 2.61728 29.6509 3.07808 29.6509 3.99968V4.86369C29.6509 5.79489 30.1021 6.26049 31.0045 6.26049ZM32.4589 11.2285H30.9469C30.3229 11.2285 29.8285 11.0557 29.4637 10.7101C29.0989 10.3549 28.9165 9.86531 28.9165 9.24131V8.2909C28.9165 7.4173 29.2669 6.8413 29.9677 6.5629C29.2669 6.28449 28.9165 5.71329 28.9165 4.84929V3.95649C28.9165 3.33248 29.0989 2.84768 29.4637 2.50208C29.8285 2.14688 30.3229 1.96928 30.9469 1.96928H32.4589C33.0829 1.96928 33.5725 2.14688 33.9277 2.50208C34.2925 2.84768 34.4749 3.33248 34.4749 3.95649V4.84929C34.4749 5.73249 34.1293 6.30369 33.4381 6.5629C34.1293 6.8317 34.4749 7.4077 34.4749 8.2909V9.24131C34.4749 9.86531 34.2925 10.3549 33.9277 10.7101C33.5725 11.0557 33.0829 11.2285 32.4589 11.2285ZM38.4717 10.5805H39.8685C40.7805 10.5805 41.2365 10.1197 41.2365 9.19811V8.2621C41.2365 7.3405 40.7805 6.8797 39.8685 6.8797H38.4717C37.5693 6.8797 37.1181 7.3405 37.1181 8.2621V9.19811C37.1181 10.1197 37.5693 10.5805 38.4717 10.5805ZM38.4717 6.26049H39.8685C40.3101 6.26049 40.6461 6.14049 40.8765 5.90049C41.1165 5.66049 41.2365 5.31489 41.2365 4.86369V3.99968C41.2365 3.07808 40.7805 2.61728 39.8685 2.61728H38.4717C37.5693 2.61728 37.1181 3.07808 37.1181 3.99968V4.86369C37.1181 5.79489 37.5693 6.26049 38.4717 6.26049ZM39.9261 11.2285H38.4141C37.7901 11.2285 37.2957 11.0557 36.9309 10.7101C36.5661 10.3549 36.3837 9.86531 36.3837 9.24131V8.2909C36.3837 7.4173 36.7341 6.8413 37.4349 6.5629C36.7341 6.28449 36.3837 5.71329 36.3837 4.84929V3.95649C36.3837 3.33248 36.5661 2.84768 36.9309 2.50208C37.2957 2.14688 37.7901 1.96928 38.4141 1.96928H39.9261C40.5501 1.96928 41.0397 2.14688 41.3949 2.50208C41.7597 2.84768 41.9421 3.33248 41.9421 3.95649V4.84929C41.9421 5.73249 41.5965 6.30369 40.9053 6.5629C41.5965 6.8317 41.9421 7.4077 41.9421 8.2909V9.24131C41.9421 9.86531 41.7597 10.3549 41.3949 10.7101C41.0397 11.0557 40.5501 11.2285 39.9261 11.2285ZM47.9549 8.6941V2.54528L44.3261 8.6941H47.9549ZM48.5021 11.2285H48.1133C48.0077 11.2285 47.9549 11.1709 47.9549 11.0557V9.34211H43.7789C43.6349 9.34211 43.5629 9.27491 43.5629 9.14051V8.88131C43.5629 8.79491 43.5965 8.6845 43.6637 8.5501L47.4365 2.18528C47.5229 2.04128 47.6381 1.96928 47.7821 1.96928H48.4589C48.5933 1.96928 48.6605 2.04128 48.6605 2.18528V8.6941H49.7405C49.8461 8.6941 49.8989 8.7421 49.8989 8.83811V9.18371C49.8989 9.28931 49.8461 9.34211 49.7405 9.34211H48.6605V11.0557C48.6605 11.1709 48.6077 11.2285 48.5021 11.2285ZM53.305 10.5805H54.529C54.9706 10.5805 55.3066 10.4605 55.537 10.2205C55.7674 9.97091 55.8826 9.61571 55.8826 9.15491V7.7725C55.8826 7.3213 55.7674 6.9757 55.537 6.7357C55.3066 6.4861 54.9706 6.36129 54.529 6.36129H51.9514V9.15491C51.9514 9.61571 52.0666 9.97091 52.297 10.2205C52.5274 10.4605 52.8634 10.5805 53.305 10.5805ZM54.5866 11.2285H53.2474C52.6234 11.2285 52.129 11.0461 51.7642 10.6813C51.3994 10.3165 51.217 9.81731 51.217 9.18371V4.01408C51.217 3.38048 51.3994 2.88128 51.7642 2.51648C52.129 2.15168 52.6234 1.96928 53.2474 1.96928H55.9834C56.089 1.96928 56.1418 2.02208 56.1418 2.12768V2.47328C56.1418 2.56928 56.089 2.61728 55.9834 2.61728H53.305C52.8634 2.61728 52.5274 2.74208 52.297 2.99168C52.0666 3.23168 51.9514 3.58208 51.9514 4.04289V5.71329H54.5866C55.2106 5.71329 55.705 5.89569 56.0698 6.26049C56.4346 6.6253 56.617 7.1197 56.617 7.7437V9.18371C56.617 9.81731 56.4346 10.3165 56.0698 10.6813C55.705 11.0461 55.2106 11.2285 54.5866 11.2285ZM58.346 12.5677V12.2509C58.346 12.1549 58.4036 12.1069 58.5188 12.1069H58.562C59.0228 12.1069 59.378 11.9677 59.6276 11.6893C59.8772 11.4205 60.002 11.0317 60.002 10.5229V4.14369C60.002 3.63488 59.8772 3.24608 59.6276 2.97728C59.378 2.69888 59.0228 2.55968 58.562 2.55968H58.5188C58.4036 2.55968 58.346 2.51168 58.346 2.41568V2.09888C58.346 2.01248 58.4036 1.96928 58.5188 1.96928H58.562C59.1956 1.96928 59.6996 2.16608 60.074 2.55968C60.458 2.94368 60.65 3.48608 60.65 4.18689V10.4797C60.65 11.1805 60.458 11.7229 60.074 12.1069C59.6996 12.5005 59.1956 12.6973 58.562 12.6973H58.5188C58.4036 12.6973 58.346 12.6541 58.346 12.5677Z" fill="white"/>
</svg>
