<svg width="171" height="54" viewBox="0 0 171 54" fill="none" xmlns="http://www.w3.org/2000/svg">
<g clip-path="url(#clip0_2_435)">
<path fill-rule="evenodd" clip-rule="evenodd" d="M57.1892 26.053C56.9817 23.6758 55.1505 21.5056 52.6288 21.5056C50.1071 21.5056 48.3111 23.6758 48.0696 26.053H57.1881H57.1892ZM58.2244 26.5253C58.2233 26.6566 58.1701 26.7822 58.0763 26.8745C57.9826 26.9668 57.8561 27.0182 57.7244 27.0177H48.0696C48.3111 29.3959 50.1071 31.5662 52.6288 31.5662C54.3557 31.5662 55.6347 30.9114 56.6018 29.5328C56.7423 29.345 56.9476 29.2219 57.2168 29.3354C57.2784 29.3629 57.3335 29.4031 57.3784 29.4534C57.4232 29.5036 57.4568 29.5629 57.4769 29.6271C57.4971 29.6914 57.5033 29.7591 57.4951 29.826C57.4869 29.8928 57.4646 29.9571 57.4296 30.0146C56.4635 31.7041 54.5292 32.5298 52.6288 32.5298C49.3826 32.5298 47.0673 29.6368 47.0673 26.5359C47.0673 23.4349 49.3826 20.5409 52.6288 20.5409C55.873 20.5409 58.2191 23.4275 58.2255 26.5253H58.2244ZM69.9349 20.7818C70.2115 20.7818 70.419 21.0238 70.419 21.2647C70.419 21.5406 70.2115 21.7465 69.9349 21.7465H67.344V31.876C67.3413 32.003 67.2895 32.124 67.1995 32.2137C67.1095 32.3035 66.9882 32.3551 66.861 32.3578C66.7335 32.3554 66.612 32.3039 66.5217 32.2141C66.4315 32.1243 66.3796 32.0032 66.3768 31.876V21.7465H63.8903C63.8263 21.7481 63.7628 21.7367 63.7034 21.7131C63.644 21.6895 63.59 21.654 63.5448 21.609C63.4995 21.564 63.4639 21.5102 63.44 21.451C63.4162 21.3918 63.4047 21.3285 63.4061 21.2647C63.4061 21.0238 63.6136 20.7818 63.8903 20.7818H66.3768V17.0739C66.3768 16.8404 66.5364 16.6239 66.7673 16.5867C67.0887 16.5337 67.344 16.7555 67.344 17.0611V20.7818H69.9349ZM85.7204 25.6742V31.8081C85.7204 32.083 85.4789 32.2889 85.2363 32.2889C85.1725 32.2903 85.109 32.2788 85.0498 32.2551C84.9905 32.2314 84.9367 32.196 84.8915 32.151C84.8464 32.1059 84.8108 32.0523 84.7871 31.9931C84.7633 31.934 84.7518 31.8707 84.7533 31.8071V25.6742C84.7533 23.6069 83.5786 21.5396 81.2644 21.5396C78.2937 21.5396 77.0158 24.1237 77.1893 26.7768C77.1893 26.8458 77.2233 27.1556 77.2233 27.1907V31.7943C77.2233 32.0278 77.0637 32.2443 76.8339 32.2825C76.5115 32.3345 76.2561 32.1127 76.2561 31.8071V11.652C76.2561 11.4111 76.4636 11.1702 76.7392 11.1702C77.0158 11.1702 77.2233 11.4111 77.2233 11.652V23.0561C78.0532 21.5746 79.5375 20.5749 81.2644 20.5749C84.0968 20.5749 85.7204 23.0561 85.7204 25.6742ZM101.99 26.053C101.783 23.6758 99.9515 21.5056 97.4298 21.5056C94.9081 21.5056 93.1121 23.6758 92.8706 26.053H101.989H101.99ZM103.025 26.5253C103.024 26.6566 102.971 26.7822 102.877 26.8745C102.784 26.9668 102.657 27.0182 102.525 27.0177H92.8706C93.1121 29.3959 94.9081 31.5662 97.4298 31.5662C99.1578 31.5662 100.436 30.9114 101.403 29.5328C101.543 29.345 101.749 29.2219 102.018 29.3354C102.079 29.3629 102.134 29.4031 102.179 29.4534C102.224 29.5036 102.258 29.5629 102.278 29.6271C102.298 29.6914 102.304 29.7591 102.296 29.826C102.288 29.8928 102.266 29.9571 102.231 30.0146C101.264 31.7041 99.3301 32.5298 97.4298 32.5298C94.1835 32.5298 91.8693 29.6368 91.8693 26.5359C91.8693 23.4349 94.1835 20.5409 97.4298 20.5409C100.674 20.5409 103.02 23.4275 103.026 26.5253H103.025ZM114.874 21.2297C114.874 21.5406 114.702 21.7125 114.425 21.7465C111.593 22.1604 110.315 24.4686 110.315 27.1556V31.7604C110.315 31.9938 110.155 32.2093 109.924 32.2475C109.603 32.2995 109.347 32.0777 109.347 31.772V21.2764C109.347 21.0429 109.506 20.8275 109.737 20.7893C110.06 20.7373 110.315 20.9591 110.315 21.2647V23.401C111.109 22.0564 112.698 20.7829 114.356 20.7829C114.598 20.7829 114.874 20.9548 114.874 21.2297ZM129.693 26.053C129.485 23.6758 127.655 21.5056 125.133 21.5056C122.612 21.5056 120.816 23.6758 120.574 26.053H129.693ZM130.729 26.5253C130.728 26.6565 130.674 26.7819 130.58 26.8742C130.487 26.9664 130.36 27.018 130.229 27.0177H120.574C120.816 29.3959 122.612 31.5662 125.133 31.5662C126.86 31.5662 128.138 30.9114 129.105 29.5328C129.247 29.345 129.452 29.2219 129.721 29.3354C129.792 29.3661 129.854 29.4138 129.902 29.4744C129.95 29.535 129.982 29.6065 129.995 29.6825C130.017 29.7972 129.995 29.9159 129.934 30.0157C128.967 31.7031 127.033 32.5308 125.133 32.5308C121.886 32.5308 119.573 29.6368 119.573 26.5348C119.573 23.4349 121.886 20.5409 125.133 20.5409C128.376 20.5409 130.724 23.4275 130.73 26.5253H130.729ZM146.307 21.3517V31.876C146.307 32.152 146.065 32.3578 145.824 32.3578C145.76 32.3594 145.696 32.3481 145.637 32.3244C145.578 32.3008 145.524 32.2654 145.478 32.2204C145.433 32.1753 145.398 32.1216 145.374 32.0624C145.35 32.0032 145.338 31.9398 145.34 31.876V29.8777C144.546 31.4622 143.13 32.5998 141.333 32.5998C138.466 32.5998 136.878 30.1186 136.878 27.5005V21.3347C136.878 21.0928 137.084 20.8508 137.361 20.8508C137.637 20.8508 137.845 21.0928 137.845 21.3337V27.5005C137.845 29.5678 139.019 31.6351 141.333 31.6351C144.58 31.6351 145.34 28.6032 145.34 25.2603V21.3337C145.341 21.2587 145.359 21.185 145.393 21.1183C145.428 21.0515 145.477 20.9935 145.537 20.9488C145.597 20.9041 145.667 20.8738 145.741 20.8603C145.815 20.8468 145.891 20.8504 145.963 20.871C146.065 20.9034 146.153 20.9678 146.215 21.0544C146.277 21.1411 146.309 21.2453 146.307 21.3517ZM170.728 25.6402V31.806C170.728 32.083 170.486 32.2889 170.245 32.2889C170.181 32.2905 170.117 32.2791 170.058 32.2555C169.999 32.2318 169.945 32.1964 169.899 32.1514C169.854 32.1063 169.819 32.0526 169.795 31.9934C169.771 31.9342 169.759 31.8708 169.761 31.8071V25.6402C169.761 23.5729 168.587 21.5406 166.272 21.5406C163.371 21.5406 162.266 24.6405 162.266 27.0527V31.8071C162.266 32.083 162.024 32.2889 161.782 32.2889C161.718 32.2905 161.654 32.2791 161.595 32.2555C161.536 32.2318 161.482 32.1964 161.437 32.1513C161.392 32.1063 161.356 32.0525 161.332 31.9933C161.309 31.9341 161.297 31.8708 161.299 31.8071V25.6402C161.299 23.5729 160.124 21.5406 157.81 21.5406C154.873 21.5406 153.665 23.8488 153.768 26.9147C153.768 26.9837 153.803 27.1217 153.768 27.1556V31.7954C153.768 32.0289 153.609 32.2432 153.378 32.2814C153.056 32.3345 152.801 32.1116 152.801 31.8071V21.2774C152.801 21.044 152.96 20.8275 153.191 20.7893C153.512 20.7373 153.768 20.9591 153.768 21.2647V23.021C154.598 21.5406 156.083 20.5759 157.811 20.5759C159.778 20.5759 161.299 21.8155 161.92 23.6419C162.714 21.8505 164.268 20.5749 166.272 20.5749C169.104 20.5749 170.728 23.021 170.728 25.6402Z" fill="white" fill-opacity="0.5"/>
<path fill-rule="evenodd" clip-rule="evenodd" d="M0.85968 27.5525L16.99 37.0633V0.856934L0.85968 27.5525Z" fill="white" fill-opacity="0.5"/>
<path fill-rule="evenodd" clip-rule="evenodd" d="M16.9911 0.856934V37.0633L33.1214 27.5525L16.9911 0.856934Z" fill="white" fill-opacity="0.5"/>
<path fill-rule="evenodd" clip-rule="evenodd" d="M16.9911 20.2405L0.85968 27.5524L16.99 37.0633L33.1214 27.5535L16.9911 20.2405Z" fill="white" fill-opacity="0.5"/>
<path fill-rule="evenodd" clip-rule="evenodd" d="M16.9911 20.2405L0.85968 27.5524L16.99 37.0633L16.9911 20.2405Z" fill="white" fill-opacity="0.5"/>
<path fill-rule="evenodd" clip-rule="evenodd" d="M0.85968 30.6035L16.99 53.2759V40.109L0.85968 30.6035Z" fill="white" fill-opacity="0.5"/>
<path fill-rule="evenodd" clip-rule="evenodd" d="M16.9911 40.1091V53.2769L33.132 30.6035L16.9911 40.1091Z" fill="white" fill-opacity="0.5"/>
</g>
<defs>
<clipPath id="clip0_2_435">
<rect width="170.241" height="53.062" fill="white" transform="translate(0.511719 0.421875)"/>
</clipPath>
</defs>
</svg>
