<svg width="92" height="26" viewBox="0 0 92 26" fill="none" xmlns="http://www.w3.org/2000/svg">
<path d="M13.5766 1.37207L6.46008 13.1815L13.5766 9.94699V1.37207Z" fill="white"/>
<path d="M13.5766 9.9469L6.46008 13.1814L13.5766 17.3891V9.9469Z" fill="white"/>
<path d="M20.6941 13.1815L13.5763 1.37207V9.94699L20.6941 13.1815Z" fill="white"/>
<path d="M13.5763 17.3891L20.6941 13.1814L13.5763 9.9469V17.3891Z" fill="white"/>
<path d="M6.46008 14.5317L13.5766 24.5611V18.7368L6.46008 14.5317Z" fill="white"/>
<path d="M13.5763 18.7368V24.5611L20.6981 14.5317L13.5763 18.7368Z" fill="white"/>
<path d="M29.0819 17.5276V8.41335H37.4745V10.097H30.7655V12.1223H36.158V13.8186H30.7655V15.844H37.4745V17.5276H29.0819ZM42.0143 17.5276V10.097H38.2926V8.41335H47.4068V10.097H43.6979V17.5276H42.0143ZM48.3662 17.5276V8.41335H50.0372V12.1223H56.0121V8.41335H57.683V17.5276H56.0121V13.8186H50.0372V17.5276H48.3662ZM64.7117 17.5276C64.4332 17.5276 64.1716 17.4559 63.9269 17.3124C63.6822 17.1605 63.4712 16.9622 63.294 16.7174C63.1252 16.4643 63.0112 16.1816 62.9522 15.8693H70.1803C70.2225 15.8693 70.2562 15.8566 70.2815 15.8313C70.3153 15.7976 70.3322 15.7596 70.3322 15.7174V14.0338C70.3322 13.9916 70.3153 13.9578 70.2815 13.9325C70.2562 13.8988 70.2225 13.8819 70.1803 13.8819H64.7117C64.3826 13.8819 64.0872 13.8017 63.8256 13.6414C63.564 13.481 63.353 13.2701 63.1927 13.0084C63.0323 12.7384 62.9522 12.443 62.9522 12.1223V10.1602C62.9522 9.83112 63.0323 9.53576 63.1927 9.27414C63.353 9.01253 63.564 8.80577 63.8256 8.65387C64.0872 8.49353 64.3826 8.41335 64.7117 8.41335H70.2436C70.5642 8.41335 70.8554 8.49353 71.117 8.65387C71.3786 8.80577 71.5896 9.01253 71.7499 9.27414C71.9103 9.53576 71.9905 9.83112 71.9905 10.1602V15.7807C71.9905 16.1014 71.9103 16.3925 71.7499 16.6541C71.5896 16.9158 71.3786 17.1267 71.117 17.2871C70.8554 17.4474 70.5642 17.5276 70.2436 17.5276H64.7117ZM64.775 12.211H70.3322V10.2235C70.3322 10.1813 70.3153 10.1476 70.2815 10.1223C70.2562 10.0885 70.2225 10.0716 70.1803 10.0716H64.775C64.7328 10.0716 64.6948 10.0885 64.6611 10.1223C64.6358 10.1476 64.6231 10.1813 64.6231 10.2235V12.059C64.6231 12.1012 64.6358 12.1392 64.6611 12.173C64.6948 12.1983 64.7328 12.211 64.775 12.211ZM73.4478 17.5276V15.8693H75.1061V17.5276H73.4478ZM78.0627 17.5276C77.7335 17.5276 77.4382 17.4474 77.1765 17.2871C76.9149 17.1267 76.704 16.9158 76.5436 16.6541C76.3833 16.3925 76.3031 16.1014 76.3031 15.7807V15.2364H77.9614V15.7174C77.9614 15.7596 77.974 15.7976 77.9994 15.8313C78.0331 15.8566 78.0711 15.8693 78.1133 15.8693H83.5185C83.5607 15.8693 83.5987 15.8566 83.6325 15.8313C83.6662 15.7976 83.6831 15.7596 83.6831 15.7174V13.8946C83.6831 13.8524 83.6662 13.8186 83.6325 13.7933C83.5987 13.7595 83.5607 13.7426 83.5185 13.7426H77.8728V12.0844H83.1641C83.2063 12.0844 83.24 12.0717 83.2654 12.0464C83.2991 12.0126 83.316 11.9747 83.316 11.9325V10.2235C83.316 10.1813 83.2991 10.1476 83.2654 10.1223C83.24 10.0885 83.2063 10.0716 83.1641 10.0716H78.1133C78.0711 10.0716 78.0331 10.0885 77.9994 10.1223C77.974 10.1476 77.9614 10.1813 77.9614 10.2235V10.8185H76.3031V10.1602C76.3031 9.83112 76.3833 9.53576 76.5436 9.27414C76.704 9.01253 76.9149 8.80577 77.1765 8.65387C77.4382 8.49353 77.7335 8.41335 78.0627 8.41335H83.2274C83.5565 8.41335 83.8519 8.49353 84.1135 8.65387C84.3751 8.80577 84.5819 9.01253 84.7338 9.27414C84.8941 9.53576 84.9743 9.83112 84.9743 10.1602V12.0084C84.9743 12.1097 84.9658 12.2152 84.949 12.3249C84.9321 12.4261 84.9068 12.5232 84.873 12.616C85.0249 12.7764 85.1388 12.9663 85.2148 13.1857C85.2992 13.3966 85.3414 13.6118 85.3414 13.8313V15.7807C85.3414 16.1014 85.2612 16.3925 85.1009 16.6541C84.9405 16.9158 84.7295 17.1267 84.4679 17.2871C84.2063 17.4474 83.9152 17.5276 83.5945 17.5276H78.0627ZM89.0146 17.5276V10.8058L88.293 11.6919H86.1031L88.85 8.41335H90.6855V17.5276H89.0146Z" fill="white"/>
</svg>
